<?xml version="1.0" encoding="utf-8"?>
<!-- Generator: Adobe Illustrator 18.0.0, SVG Export Plug-In . SVG Version: 6.00 Build 0)  -->
<!DOCTYPE svg PUBLIC "-//W3C//DTD SVG 1.1//EN" "http://www.w3.org/Graphics/SVG/1.1/DTD/svg11.dtd">
<svg version="1.1" id="Layer_1" xmlns="http://www.w3.org/2000/svg" xmlns:xlink="http://www.w3.org/1999/xlink" x="0px" y="0px"
	 viewBox="0 0 19 19" enable-background="new 0 0 19 19" xml:space="preserve">
<g>
	<g>
		<path fill="#E67817" d="M9.5,0.1L9.5,0.1c-3.8,0-6.8,3-6.8,6.8c0,1.3,0.4,2.6,1,3.6l4.4,7.7c0.3,0.5,0.8,0.8,1.4,0.8
			c0.5,0,1.1-0.3,1.4-0.8l4.4-7.7c0.6-1,1-2.3,1-3.6C16.3,3.1,13.3,0.1,9.5,0.1L9.5,0.1z M9.5,8.9C8.1,8.9,7,7.8,7,6.4
			s1.1-2.5,2.5-2.5C10.9,3.9,12,5,12,6.4C12,7.8,10.9,8.9,9.5,8.9L9.5,8.9z M9.5,8.9"/>
	</g>
</g>
</svg>
